<svg xmlns="http://www.w3.org/2000/svg" width="1920" height="600" viewBox="0 0 1920 600">
  <defs>
    <linearGradient id="supGrad" x1="0%" y1="0%" x2="100%" y2="100%">
      <stop offset="0%" style="stop-color:#FFFDF7;stop-opacity:1"/>
      <stop offset="50%" style="stop-color:#F4E5B5;stop-opacity:0.4"/>
      <stop offset="100%" style="stop-color:#D4AF37;stop-opacity:0.2"/>
    </linearGradient>
  </defs>
  <rect width="1920" height="600" fill="url(#supGrad)"/>
  <!-- Hands reaching up (community) -->
  <g opacity="0.06" fill="#1B5E20">
    <path d="M700,600 L720,400 Q740,380 760,400 L780,600 Z"/>
    <path d="M800,600 L820,350 Q840,330 860,350 L880,600 Z"/>
    <path d="M920,600 L940,380 Q960,360 980,380 L1000,600 Z"/>
    <path d="M1040,600 L1060,350 Q1080,330 1100,350 L1120,600 Z"/>
    <path d="M1160,600 L1180,400 Q1200,380 1220,400 L1240,600 Z"/>
  </g>
  <!-- Heart shapes -->
  <g opacity="0.05" fill="#D4AF37">
    <path d="M960,150 Q960,120 980,120 Q1000,120 1000,150 Q1000,180 960,210 Q920,180 920,150 Q920,120 940,120 Q960,120 960,150 Z" transform="scale(2) translate(-480,-50)"/>
  </g>
</svg>