<svg xmlns="http://www.w3.org/2000/svg" width="1920" height="600" viewBox="0 0 1920 600">
  <defs>
    <linearGradient id="achGrad" x1="0%" y1="0%" x2="100%" y2="100%">
      <stop offset="0%" style="stop-color:#1B5E20;stop-opacity:1"/>
      <stop offset="50%" style="stop-color:#0D3B11;stop-opacity:1"/>
      <stop offset="100%" style="stop-color:#1B5E20;stop-opacity:1"/>
    </linearGradient>
    <pattern id="achPattern" x="0" y="0" width="100" height="100" patternUnits="userSpaceOnUse">
      <polygon points="50,5 65,35 95,40 72,62 78,95 50,78 22,95 28,62 5,40 35,35" 
               fill="none" stroke="#D4AF37" stroke-width="0.5" opacity="0.1"/>
    </pattern>
  </defs>
  <rect width="1920" height="600" fill="url(#achGrad)"/>
  <rect width="1920" height="600" fill="url(#achPattern)"/>
  <!-- Trophy silhouettes -->
  <g opacity="0.05" fill="#D4AF37">
    <path d="M100,100 Q150,60 200,100 L180,200 L120,200 Z"/>
    <rect x="140" y="200" width="20" height="50"/>
    <rect x="120" y="250" width="60" height="15" rx="5"/>
    <path d="M1700,150 Q1750,110 1800,150 L1780,250 L1720,250 Z"/>
    <rect x="1740" y="250" width="20" height="50"/>
    <rect x="1720" y="300" width="60" height="15" rx="5"/>
  </g>
</svg>